<svg width="350" height="135" viewBox="0 0 350 135" fill="none" xmlns="http://www.w3.org/2000/svg">
<g id="logo-white">
<rect width="350" height="135" fill="#FE4400"/>
<g id="Group 693">
<path id="A1-logo" fill-rule="evenodd" clip-rule="evenodd" d="M23 85.6982V64.5001C25 43.5 34.5 23.5 48 23C58 24.5 63.6723 27.3114 68 41.5C69.8301 47.5 70.3604 52.1304 71 58.5001V86.6982C67 91.0001 58 88.5001 58 86.6982L57.5 77.9999H36L35.5 83.0001L35 85.6982C34.5 90.0001 24.5 90.5001 23 85.6982ZM57 54.0001L57.5 64.5001H37V58.5001C37 51.0001 43.5 38.5 48 38.5C51.5 38 56 47 57 54.0001Z" fill="#F1F1F1" stroke="#F7EAE6"/>
<path id="A2-logo" fill-rule="evenodd" clip-rule="evenodd" d="M263 85.6982V64.5001C265 43.5 274.5 23.5 288 23C298 24.5 303.672 27.3114 308 41.5C309.83 47.5 310.36 52.1304 311 58.5001V86.6982C307 91.0001 298 88.5001 298 86.6982L297.5 77.9999H276L275.5 83.0001L275 85.6982C274.5 90.0001 264.5 90.5001 263 85.6982ZM297 54.0001L297.5 64.5001H277V58.5001C277 51.0001 283.5 38.5 288 38.5C291.5 38 296 47 297 54.0001Z" fill="#F1F1F1" stroke="#F7EAE6"/>
<g id="g-logo">
<path fill-rule="evenodd" clip-rule="evenodd" d="M104.123 43.1239C84.0911 43.7155 76.623 52.624 76.1231 63.1239C76.1075 63.7405 76.0844 64.3239 76.0624 64.8792C75.9447 67.853 75.8591 70.0173 77.1231 72.1239C81.2153 79.6897 84.6231 83.1239 92.1231 84.1239H96.6231H101.123C102.31 84.1239 102.871 83.8109 103.549 83.4325C103.728 83.3327 103.914 83.2284 104.123 83.124V89.1239C103.123 94.624 98.1231 97.1239 90.6231 97.1239L88.7481 96.8739L86.8731 96.6239L84.9981 96.3739L83.1231 96.1239C80.7179 96.6049 80.3944 99.8791 80.1516 102.337C80.142 102.434 80.1326 102.53 80.1231 102.624C80.2913 108.513 83.6231 110.624 90.6231 111.124H97.1231C105.623 111.124 114.123 102.124 115.623 97.1239C117.123 92.624 117.123 90.624 117.123 89.1239V43.1239C116.497 40.8715 115.734 40.0923 113.123 40.1239H108.623C105.597 39.7152 104.486 40.22 104.123 43.1239ZM105.123 67.6239V58.1239C104.253 56.3837 103.165 56.2953 101.769 56.1819C101.561 56.165 101.345 56.1475 101.123 56.1239H95.1231C91.6232 56.6239 89.1232 63.1239 91.1231 67.6239C94.1232 72.1239 100.123 73.1239 105.123 67.6239Z" fill="#F1F1F1"/>
<path d="M101.123 84.1239C99.6231 84.1239 96.6231 84.1239 96.6231 84.1239M101.123 84.1239H96.6231M101.123 84.1239C102.31 84.1239 102.871 83.8109 103.549 83.4325C103.728 83.3327 103.914 83.2284 104.123 83.124V89.1239C103.123 94.624 98.1231 97.1239 90.6231 97.1239L88.7481 96.8739L86.8731 96.6239L84.9981 96.3739L83.1231 96.1239C80.7179 96.6049 80.3944 99.8791 80.1516 102.337C80.142 102.434 80.1326 102.53 80.1231 102.624C80.2913 108.513 83.6231 110.624 90.6231 111.124H97.1231C105.623 111.124 114.123 102.124 115.623 97.1239C117.123 92.624 117.123 90.624 117.123 89.1239V43.1239C116.497 40.8715 115.734 40.0923 113.123 40.1239H108.623C105.597 39.7152 104.486 40.22 104.123 43.1239C84.0911 43.7155 76.623 52.624 76.1231 63.1239C76.1075 63.7405 76.0844 64.3239 76.0624 64.8792C75.9447 67.853 75.8591 70.0173 77.1231 72.1239C81.2153 79.6897 84.6231 83.1239 92.1231 84.1239H96.6231M105.123 58.1239V67.6239C100.123 73.1239 94.1232 72.1239 91.1231 67.6239C89.1232 63.1239 91.6232 56.6239 95.1231 56.1239H101.123C101.345 56.1475 101.561 56.165 101.769 56.1819C103.165 56.2953 104.253 56.3837 105.123 58.1239Z" stroke="#F7EAE6"/>
</g>
<g id="e-logo">
<path fill-rule="evenodd" clip-rule="evenodd" d="M137.58 67.0373H160.08C162.789 66.7898 163.279 64.0259 162.58 55.0373C162.58 50.0371 154.58 42.5371 145.58 42.0373C136.58 41.5374 129.08 46.0371 125.08 57.0373C123.829 63.5936 123.668 67.1076 124.58 73.0373C125.08 78.0373 130.952 85.4805 137.58 88.0373C142.58 89.5372 148.291 89.4588 153.58 88.0373C159.042 85.2358 161.58 83.5371 161.58 78.0373C161.275 73.1089 159.776 72.0292 155.58 72.0373C154.354 71.9094 153.217 72.9143 151.925 74.0561C150.352 75.4454 148.55 77.0373 146.08 77.0373C141.58 77.0373 137.58 73.5371 137.58 71.0373V67.0373ZM150.58 57.0373H139.58C139.58 57.0373 140.568 51.6303 145.58 52.0373C150.402 52.4289 150.496 54.8556 150.571 56.8084C150.574 56.8855 150.577 56.9618 150.58 57.0373Z" fill="#F1F1F1"/>
<path d="M137.58 67.0373C146.367 67.0373 151.294 67.0373 160.08 67.0373M137.58 67.0373C137.58 68.5994 137.58 69.4752 137.58 71.0373M137.58 67.0373H160.08M137.58 67.0373V71.0373M160.08 67.0373C162.789 66.7898 163.279 64.0259 162.58 55.0373C162.58 50.0371 154.58 42.5371 145.58 42.0373C136.58 41.5374 129.08 46.0371 125.08 57.0373C123.829 63.5936 123.668 67.1076 124.58 73.0373C125.08 78.0373 130.952 85.4805 137.58 88.0373C142.58 89.5372 148.291 89.4588 153.58 88.0373C159.042 85.2358 161.58 83.5371 161.58 78.0373C161.275 73.1089 159.776 72.0292 155.58 72.0373C154.354 71.9094 153.217 72.9143 151.925 74.0561C150.352 75.4454 148.55 77.0373 146.08 77.0373C141.58 77.0373 137.58 73.5371 137.58 71.0373M139.58 57.0373H150.58C150.577 56.9618 150.574 56.8855 150.571 56.8084C150.496 54.8556 150.402 52.4289 145.58 52.0373C140.568 51.6303 139.58 57.0373 139.58 57.0373Z" stroke="#F7EAE6"/>
</g>
<path id="n-logo" d="M168 43.5799V85.0799C168 88.0798 170.905 88.2533 175.5 88.0799C180.528 88.3042 181.889 87.5787 182 85.0799V64.0799C182 57.5802 185.589 54.1402 191 54.0799C195 53.5802 197.171 56.4347 199 62.5799C199.5 69.5801 198 72.0801 198 75.0799V84.5799C199 88.0799 200.361 88.1834 205.5 88.0799C210.322 88.2349 211.5 88.0799 212 85.0799V60.0799C211.463 51.8908 206.5 46.5802 203 44.0799C195.563 41.2063 190.955 41.2723 182 44.0799C182 44.0799 181 44.0797 181 43.5799V41.0799C181 39.5801 179.5 40.08 178 40.0799H172C169.509 39.9753 168.602 40.704 168 43.5799Z" fill="#F1F1F1" stroke="#F7EAE6"/>
<g id="i-logo">
<path d="M330.062 85.5692V50.0691C330.062 48.5693 329.562 48.0691 327.562 48.0691H319.062C317.062 49.0693 316.86 70.9138 317.062 85.5692C317.376 87.8716 317.061 88.0693 319.062 88.0691H327.062C329 87.9147 330.062 87.5693 330.062 85.5692Z" fill="#F1F1F1"/>
<path d="M327.062 41.5693C324.562 42.5693 321.062 38.0693 321.562 36.5692C324.834 32.1227 327.258 29.3364 333.062 23.5692C335.562 21.5691 336.562 21.5694 338.562 23.0692L341.062 25.0692C342.062 26.0693 342.352 27.423 341.062 29.0692C336.772 34.5425 333.843 37.3203 327.062 41.5693Z" fill="#F1F1F1"/>
<path d="M330.062 85.5692V50.0691C330.062 48.5693 329.562 48.0691 327.562 48.0691H319.062C317.062 49.0693 316.86 70.9138 317.062 85.5692C317.376 87.8716 317.061 88.0693 319.062 88.0691H327.062C329 87.9147 330.062 87.5693 330.062 85.5692Z" stroke="#F7EAE6"/>
<path d="M327.062 41.5693C324.562 42.5693 321.062 38.0693 321.562 36.5692C324.834 32.1227 327.258 29.3364 333.062 23.5692C335.562 21.5691 336.562 21.5694 338.562 23.0692L341.062 25.0692C342.062 26.0693 342.352 27.423 341.062 29.0692C336.772 34.5425 333.843 37.3203 327.062 41.5693Z" stroke="#F7EAE6"/>
</g>
<path id="d-logo" fill-rule="evenodd" clip-rule="evenodd" d="M259.029 27.0116V85.5116C258.986 87.9727 257.892 88.4396 255.029 88.5116H234.029C224.529 87.5115 218.529 78.0115 219.029 71.0116V63.0116C220.029 53.5115 226.529 45.0115 236.029 43.5116H247.029V27.0116C247.529 22.5115 260.029 23.5117 259.029 27.0116ZM246.029 74.5116V56.5116C243.944 55.2608 242.543 55.3354 240.406 55.4491C239.98 55.4718 239.525 55.496 239.029 55.5116C235.529 56.0115 232.692 60.3301 232.029 66.0116C232.029 71.0116 233.905 72.8348 237.029 74.5116H246.029Z" fill="#F1F1F1" stroke="#F7EAE6"/>
</g>
<path id="subtitle" d="M158.892 97.802C159.048 97.802 159.174 97.856 159.27 97.964C159.378 98.072 159.432 98.204 159.432 98.36V106.46C159.432 106.616 159.378 106.748 159.27 106.856C159.174 106.952 159.048 107 158.892 107C158.736 107 158.604 106.952 158.496 106.856C158.4 106.748 158.352 106.616 158.352 106.46V105.254C158.052 105.794 157.602 106.25 157.002 106.622C156.402 106.994 155.748 107.18 155.04 107.18C154.236 107.18 153.51 106.97 152.862 106.55C152.226 106.13 151.722 105.554 151.35 104.822C150.99 104.09 150.81 103.268 150.81 102.356C150.81 101.444 150.996 100.628 151.368 99.908C151.74 99.176 152.244 98.606 152.88 98.198C153.528 97.79 154.242 97.586 155.022 97.586C155.742 97.586 156.402 97.76 157.002 98.108C157.602 98.456 158.052 98.912 158.352 99.476V98.36C158.352 98.204 158.4 98.072 158.496 97.964C158.604 97.856 158.736 97.802 158.892 97.802ZM155.148 106.172C155.772 106.172 156.33 106.01 156.822 105.686C157.326 105.35 157.716 104.894 157.992 104.318C158.28 103.73 158.424 103.076 158.424 102.356C158.424 101.66 158.28 101.024 157.992 100.448C157.716 99.872 157.326 99.422 156.822 99.098C156.33 98.762 155.772 98.594 155.148 98.594C154.524 98.594 153.96 98.756 153.456 99.08C152.964 99.404 152.574 99.854 152.286 100.43C152.01 100.994 151.872 101.636 151.872 102.356C151.872 103.076 152.01 103.73 152.286 104.318C152.562 104.894 152.946 105.35 153.438 105.686C153.942 106.01 154.512 106.172 155.148 106.172ZM171.826 97.802C171.982 97.802 172.108 97.856 172.204 97.964C172.312 98.06 172.366 98.192 172.366 98.36V106.154C172.366 107.09 172.168 107.888 171.772 108.548C171.388 109.22 170.854 109.73 170.17 110.078C169.498 110.426 168.724 110.6 167.848 110.6C167.428 110.6 166.984 110.546 166.516 110.438C166.06 110.33 165.664 110.192 165.328 110.024C165.004 109.856 164.818 109.682 164.77 109.502C164.686 109.418 164.644 109.322 164.644 109.214C164.644 109.094 164.698 108.998 164.806 108.926C164.854 108.89 164.914 108.872 164.986 108.872C165.058 108.872 165.196 108.914 165.4 108.998L165.778 109.16C166.522 109.448 167.218 109.592 167.866 109.592C168.934 109.592 169.768 109.286 170.368 108.674C170.98 108.074 171.286 107.258 171.286 106.226V105.11C170.986 105.758 170.512 106.268 169.864 106.64C169.216 107 168.538 107.18 167.83 107.18C167.002 107.18 166.252 106.976 165.58 106.568C164.92 106.148 164.398 105.572 164.014 104.84C163.63 104.108 163.438 103.286 163.438 102.374C163.438 101.474 163.63 100.658 164.014 99.926C164.398 99.194 164.92 98.624 165.58 98.216C166.252 97.796 166.996 97.586 167.812 97.586C168.568 97.586 169.258 97.778 169.882 98.162C170.518 98.534 170.986 98.984 171.286 99.512V98.36C171.286 98.204 171.334 98.072 171.43 97.964C171.538 97.856 171.67 97.802 171.826 97.802ZM167.92 106.172C168.58 106.172 169.168 106.016 169.684 105.704C170.212 105.38 170.62 104.93 170.908 104.354C171.208 103.766 171.358 103.106 171.358 102.374C171.358 101.642 171.208 100.988 170.908 100.412C170.62 99.836 170.212 99.392 169.684 99.08C169.168 98.756 168.58 98.594 167.92 98.594C167.272 98.594 166.684 98.762 166.156 99.098C165.64 99.422 165.232 99.872 164.932 100.448C164.644 101.024 164.5 101.666 164.5 102.374C164.5 103.094 164.644 103.742 164.932 104.318C165.232 104.894 165.64 105.35 166.156 105.686C166.684 106.01 167.272 106.172 167.92 106.172ZM184.437 101.87C184.437 102.014 184.383 102.14 184.275 102.248C184.167 102.344 184.041 102.392 183.897 102.392H177.093C177.093 103.112 177.237 103.76 177.525 104.336C177.825 104.9 178.245 105.35 178.785 105.686C179.337 106.01 179.985 106.172 180.729 106.172C181.305 106.172 181.821 106.052 182.277 105.812C182.733 105.572 183.099 105.266 183.375 104.894C183.507 104.786 183.633 104.732 183.753 104.732C183.873 104.732 183.981 104.78 184.077 104.876C184.173 104.972 184.221 105.08 184.221 105.2C184.221 105.332 184.161 105.458 184.041 105.578C183.657 106.046 183.171 106.43 182.583 106.73C182.007 107.03 181.395 107.18 180.747 107.18C179.823 107.18 179.007 106.982 178.299 106.586C177.591 106.19 177.039 105.638 176.643 104.93C176.247 104.21 176.049 103.382 176.049 102.446C176.049 101.462 176.241 100.604 176.625 99.872C177.021 99.128 177.543 98.564 178.191 98.18C178.839 97.784 179.529 97.586 180.261 97.586C180.981 97.586 181.653 97.754 182.277 98.09C182.913 98.426 183.429 98.918 183.825 99.566C184.221 100.214 184.425 100.982 184.437 101.87ZM180.261 98.63C179.565 98.63 178.917 98.87 178.317 99.35C177.729 99.83 177.351 100.52 177.183 101.42H183.321V101.276C183.261 100.736 183.081 100.268 182.781 99.872C182.481 99.464 182.103 99.158 181.647 98.954C181.203 98.738 180.741 98.63 180.261 98.63ZM192.801 97.586C193.917 97.586 194.733 97.916 195.249 98.576C195.777 99.224 196.041 100.088 196.041 101.168V106.46C196.041 106.616 195.987 106.748 195.879 106.856C195.771 106.952 195.645 107 195.501 107C195.345 107 195.213 106.952 195.105 106.856C195.009 106.748 194.961 106.616 194.961 106.46V101.222C194.961 100.442 194.763 99.812 194.367 99.332C193.983 98.84 193.383 98.594 192.567 98.594C192.051 98.594 191.559 98.714 191.091 98.954C190.635 99.194 190.263 99.518 189.975 99.926C189.687 100.322 189.543 100.754 189.543 101.222V106.46C189.543 106.616 189.489 106.748 189.381 106.856C189.285 106.952 189.159 107 189.003 107C188.847 107 188.715 106.952 188.607 106.856C188.511 106.748 188.463 106.616 188.463 106.46V98.396C188.463 98.24 188.511 98.114 188.607 98.018C188.715 97.91 188.847 97.856 189.003 97.856C189.159 97.856 189.285 97.91 189.381 98.018C189.489 98.114 189.543 98.24 189.543 98.396V99.386C189.867 98.87 190.329 98.444 190.929 98.108C191.541 97.76 192.165 97.586 192.801 97.586ZM208.139 93.68C208.295 93.68 208.421 93.734 208.517 93.842C208.625 93.938 208.679 94.064 208.679 94.22V106.46C208.679 106.616 208.625 106.748 208.517 106.856C208.421 106.952 208.295 107 208.139 107C207.983 107 207.851 106.952 207.743 106.856C207.647 106.748 207.599 106.616 207.599 106.46V105.2C207.299 105.752 206.849 106.22 206.249 106.604C205.661 106.988 205.007 107.18 204.287 107.18C203.495 107.18 202.775 106.976 202.127 106.568C201.491 106.148 200.987 105.572 200.615 104.84C200.243 104.108 200.057 103.286 200.057 102.374C200.057 101.474 200.243 100.658 200.615 99.926C200.987 99.194 201.491 98.624 202.127 98.216C202.775 97.796 203.489 97.586 204.269 97.586C204.977 97.586 205.631 97.766 206.231 98.126C206.831 98.474 207.287 98.93 207.599 99.494V94.22C207.599 94.064 207.647 93.938 207.743 93.842C207.851 93.734 207.983 93.68 208.139 93.68ZM204.395 106.172C205.019 106.172 205.577 106.01 206.069 105.686C206.573 105.362 206.963 104.912 207.239 104.336C207.527 103.748 207.671 103.094 207.671 102.374C207.671 101.666 207.527 101.024 207.239 100.448C206.963 99.872 206.573 99.422 206.069 99.098C205.577 98.762 205.019 98.594 204.395 98.594C203.771 98.594 203.207 98.762 202.703 99.098C202.211 99.422 201.821 99.872 201.533 100.448C201.257 101.024 201.119 101.666 201.119 102.374C201.119 103.094 201.257 103.742 201.533 104.318C201.821 104.894 202.211 105.35 202.703 105.686C203.207 106.01 203.771 106.172 204.395 106.172ZM220.767 97.802C220.923 97.802 221.049 97.856 221.145 97.964C221.253 98.072 221.307 98.204 221.307 98.36V106.46C221.307 106.616 221.253 106.748 221.145 106.856C221.049 106.952 220.923 107 220.767 107C220.611 107 220.479 106.952 220.371 106.856C220.275 106.748 220.227 106.616 220.227 106.46V105.254C219.927 105.794 219.477 106.25 218.877 106.622C218.277 106.994 217.623 107.18 216.915 107.18C216.111 107.18 215.385 106.97 214.737 106.55C214.101 106.13 213.597 105.554 213.225 104.822C212.865 104.09 212.685 103.268 212.685 102.356C212.685 101.444 212.871 100.628 213.243 99.908C213.615 99.176 214.119 98.606 214.755 98.198C215.403 97.79 216.117 97.586 216.897 97.586C217.617 97.586 218.277 97.76 218.877 98.108C219.477 98.456 219.927 98.912 220.227 99.476V98.36C220.227 98.204 220.275 98.072 220.371 97.964C220.479 97.856 220.611 97.802 220.767 97.802ZM217.023 106.172C217.647 106.172 218.205 106.01 218.697 105.686C219.201 105.35 219.591 104.894 219.867 104.318C220.155 103.73 220.299 103.076 220.299 102.356C220.299 101.66 220.155 101.024 219.867 100.448C219.591 99.872 219.201 99.422 218.697 99.098C218.205 98.762 217.647 98.594 217.023 98.594C216.399 98.594 215.835 98.756 215.331 99.08C214.839 99.404 214.449 99.854 214.161 100.43C213.885 100.994 213.747 101.636 213.747 102.356C213.747 103.076 213.885 103.73 214.161 104.318C214.437 104.894 214.821 105.35 215.313 105.686C215.817 106.01 216.387 106.172 217.023 106.172ZM236.365 97.73C237.445 97.73 238.237 98.066 238.741 98.738C239.257 99.398 239.515 100.274 239.515 101.366V106.46C239.515 106.616 239.461 106.748 239.353 106.856C239.257 106.952 239.131 107 238.975 107C238.819 107 238.687 106.952 238.579 106.856C238.483 106.748 238.435 106.616 238.435 106.46V101.42C238.435 100.628 238.243 99.986 237.859 99.494C237.487 98.99 236.905 98.738 236.113 98.738C235.609 98.738 235.129 98.858 234.673 99.098C234.229 99.338 233.869 99.668 233.593 100.088C233.317 100.496 233.179 100.94 233.179 101.42V106.46C233.179 106.616 233.125 106.748 233.017 106.856C232.921 106.952 232.795 107 232.639 107C232.483 107 232.351 106.952 232.243 106.856C232.147 106.748 232.099 106.616 232.099 106.46V101.366C232.099 100.586 231.919 99.956 231.559 99.476C231.199 98.984 230.635 98.738 229.867 98.738C229.375 98.738 228.907 98.858 228.463 99.098C228.031 99.338 227.677 99.662 227.401 100.07C227.137 100.466 227.005 100.898 227.005 101.366V106.46C227.005 106.616 226.951 106.748 226.843 106.856C226.747 106.952 226.621 107 226.465 107C226.309 107 226.177 106.952 226.069 106.856C225.973 106.748 225.925 106.616 225.925 106.46V98.396C225.925 98.24 225.973 98.114 226.069 98.018C226.177 97.91 226.309 97.856 226.465 97.856C226.621 97.856 226.747 97.91 226.843 98.018C226.951 98.114 227.005 98.24 227.005 98.396V99.44C227.329 98.948 227.767 98.54 228.319 98.216C228.871 97.892 229.453 97.73 230.065 97.73C230.761 97.73 231.361 97.898 231.865 98.234C232.369 98.57 232.729 99.062 232.945 99.71C233.197 99.182 233.659 98.72 234.331 98.324C235.003 97.928 235.681 97.73 236.365 97.73ZM251.919 101.87C251.919 102.014 251.865 102.14 251.757 102.248C251.649 102.344 251.523 102.392 251.379 102.392H244.575C244.575 103.112 244.719 103.76 245.007 104.336C245.307 104.9 245.727 105.35 246.267 105.686C246.819 106.01 247.467 106.172 248.211 106.172C248.787 106.172 249.303 106.052 249.759 105.812C250.215 105.572 250.581 105.266 250.857 104.894C250.989 104.786 251.115 104.732 251.235 104.732C251.355 104.732 251.463 104.78 251.559 104.876C251.655 104.972 251.703 105.08 251.703 105.2C251.703 105.332 251.643 105.458 251.523 105.578C251.139 106.046 250.653 106.43 250.065 106.73C249.489 107.03 248.877 107.18 248.229 107.18C247.305 107.18 246.489 106.982 245.781 106.586C245.073 106.19 244.521 105.638 244.125 104.93C243.729 104.21 243.531 103.382 243.531 102.446C243.531 101.462 243.723 100.604 244.107 99.872C244.503 99.128 245.025 98.564 245.673 98.18C246.321 97.784 247.011 97.586 247.743 97.586C248.463 97.586 249.135 97.754 249.759 98.09C250.395 98.426 250.911 98.918 251.307 99.566C251.703 100.214 251.907 100.982 251.919 101.87ZM247.743 98.63C247.047 98.63 246.399 98.87 245.799 99.35C245.211 99.83 244.833 100.52 244.665 101.42H250.803V101.276C250.743 100.736 250.563 100.268 250.263 99.872C249.963 99.464 249.585 99.158 249.129 98.954C248.685 98.738 248.223 98.63 247.743 98.63ZM260.283 97.586C261.399 97.586 262.215 97.916 262.731 98.576C263.259 99.224 263.523 100.088 263.523 101.168V106.46C263.523 106.616 263.469 106.748 263.361 106.856C263.253 106.952 263.127 107 262.983 107C262.827 107 262.695 106.952 262.587 106.856C262.491 106.748 262.443 106.616 262.443 106.46V101.222C262.443 100.442 262.245 99.812 261.849 99.332C261.465 98.84 260.865 98.594 260.049 98.594C259.533 98.594 259.041 98.714 258.573 98.954C258.117 99.194 257.745 99.518 257.457 99.926C257.169 100.322 257.025 100.754 257.025 101.222V106.46C257.025 106.616 256.971 106.748 256.863 106.856C256.767 106.952 256.641 107 256.485 107C256.329 107 256.197 106.952 256.089 106.856C255.993 106.748 255.945 106.616 255.945 106.46V98.396C255.945 98.24 255.993 98.114 256.089 98.018C256.197 97.91 256.329 97.856 256.485 97.856C256.641 97.856 256.767 97.91 256.863 98.018C256.971 98.114 257.025 98.24 257.025 98.396V99.386C257.349 98.87 257.811 98.444 258.411 98.108C259.023 97.76 259.647 97.586 260.283 97.586ZM269.951 98.846V104.876C269.951 105.332 270.035 105.644 270.203 105.812C270.371 105.968 270.593 106.046 270.869 106.046C270.941 106.046 271.031 106.034 271.139 106.01C271.247 105.974 271.331 105.956 271.391 105.956C271.499 105.956 271.589 106.004 271.661 106.1C271.745 106.184 271.787 106.286 271.787 106.406C271.787 106.574 271.691 106.718 271.499 106.838C271.307 106.946 271.079 107 270.815 107C270.491 107 270.203 106.97 269.951 106.91C269.699 106.85 269.453 106.67 269.213 106.37C268.985 106.07 268.871 105.59 268.871 104.93V98.846H267.557C267.413 98.846 267.287 98.798 267.179 98.702C267.083 98.606 267.035 98.486 267.035 98.342C267.035 98.198 267.083 98.078 267.179 97.982C267.287 97.886 267.413 97.838 267.557 97.838H268.871V95.84C268.871 95.684 268.919 95.558 269.015 95.462C269.123 95.354 269.255 95.3 269.411 95.3C269.567 95.3 269.693 95.354 269.789 95.462C269.897 95.558 269.951 95.684 269.951 95.84V97.838H271.751C271.883 97.838 271.997 97.892 272.093 98C272.201 98.108 272.255 98.228 272.255 98.36C272.255 98.504 272.207 98.624 272.111 98.72C272.015 98.804 271.895 98.846 271.751 98.846H269.951ZM284.459 102.392C284.459 103.292 284.261 104.108 283.865 104.84C283.469 105.572 282.923 106.148 282.227 106.568C281.531 106.976 280.757 107.18 279.905 107.18C279.053 107.18 278.279 106.976 277.583 106.568C276.887 106.148 276.341 105.572 275.945 104.84C275.549 104.108 275.351 103.292 275.351 102.392C275.351 101.492 275.549 100.676 275.945 99.944C276.341 99.212 276.887 98.636 277.583 98.216C278.279 97.796 279.053 97.586 279.905 97.586C280.757 97.586 281.531 97.796 282.227 98.216C282.923 98.636 283.469 99.212 283.865 99.944C284.261 100.676 284.459 101.492 284.459 102.392ZM283.379 102.392C283.379 101.672 283.229 101.024 282.929 100.448C282.629 99.872 282.209 99.422 281.669 99.098C281.141 98.762 280.553 98.594 279.905 98.594C279.257 98.594 278.669 98.762 278.141 99.098C277.613 99.422 277.193 99.872 276.881 100.448C276.581 101.024 276.431 101.672 276.431 102.392C276.431 103.1 276.581 103.742 276.881 104.318C277.193 104.894 277.613 105.35 278.141 105.686C278.669 106.01 279.257 106.172 279.905 106.172C280.553 106.172 281.141 106.01 281.669 105.686C282.209 105.362 282.629 104.912 282.929 104.336C283.229 103.76 283.379 103.112 283.379 102.392ZM298.394 94.706C298.01 94.706 297.71 94.832 297.494 95.084C297.29 95.336 297.188 95.684 297.188 96.128V97.982H299.204C299.336 97.982 299.45 98.03 299.546 98.126C299.654 98.222 299.708 98.342 299.708 98.486C299.708 98.63 299.654 98.75 299.546 98.846C299.45 98.942 299.336 98.99 299.204 98.99H297.188V106.46C297.188 106.616 297.134 106.748 297.026 106.856C296.93 106.952 296.804 107 296.648 107C296.492 107 296.36 106.952 296.252 106.856C296.156 106.748 296.108 106.616 296.108 106.46V98.99H294.794C294.65 98.99 294.53 98.942 294.434 98.846C294.338 98.738 294.29 98.618 294.29 98.486C294.29 98.33 294.338 98.21 294.434 98.126C294.53 98.03 294.65 97.982 294.794 97.982H296.108V96.128C296.108 95.372 296.324 94.79 296.756 94.382C297.2 93.962 297.788 93.752 298.52 93.752C298.856 93.752 299.168 93.806 299.456 93.914C299.744 94.01 299.888 94.172 299.888 94.4C299.888 94.544 299.84 94.664 299.744 94.76C299.648 94.856 299.54 94.904 299.42 94.904C299.312 94.904 299.18 94.874 299.024 94.814C298.76 94.742 298.55 94.706 298.394 94.706ZM310.806 97.802C310.962 97.802 311.088 97.856 311.184 97.964C311.292 98.072 311.346 98.204 311.346 98.36V106.46C311.346 106.616 311.292 106.748 311.184 106.856C311.088 106.952 310.962 107 310.806 107C310.65 107 310.518 106.952 310.41 106.856C310.314 106.748 310.266 106.616 310.266 106.46V105.254C309.966 105.794 309.516 106.25 308.916 106.622C308.316 106.994 307.662 107.18 306.954 107.18C306.15 107.18 305.424 106.97 304.776 106.55C304.14 106.13 303.636 105.554 303.264 104.822C302.904 104.09 302.724 103.268 302.724 102.356C302.724 101.444 302.91 100.628 303.282 99.908C303.654 99.176 304.158 98.606 304.794 98.198C305.442 97.79 306.156 97.586 306.936 97.586C307.656 97.586 308.316 97.76 308.916 98.108C309.516 98.456 309.966 98.912 310.266 99.476V98.36C310.266 98.204 310.314 98.072 310.41 97.964C310.518 97.856 310.65 97.802 310.806 97.802ZM307.062 106.172C307.686 106.172 308.244 106.01 308.736 105.686C309.24 105.35 309.63 104.894 309.906 104.318C310.194 103.73 310.338 103.076 310.338 102.356C310.338 101.66 310.194 101.024 309.906 100.448C309.63 99.872 309.24 99.422 308.736 99.098C308.244 98.762 307.686 98.594 307.062 98.594C306.438 98.594 305.874 98.756 305.37 99.08C304.878 99.404 304.488 99.854 304.2 100.43C303.924 100.994 303.786 101.636 303.786 102.356C303.786 103.076 303.924 103.73 304.2 104.318C304.476 104.894 304.86 105.35 305.352 105.686C305.856 106.01 306.426 106.172 307.062 106.172ZM306.936 97.082C306.864 97.082 306.798 97.052 306.738 96.992C306.678 96.92 306.648 96.842 306.648 96.758C306.648 96.686 306.678 96.602 306.738 96.506L307.836 94.796C307.98 94.532 308.184 94.4 308.448 94.4C308.628 94.4 308.772 94.448 308.88 94.544C308.988 94.64 309.036 94.778 309.024 94.958C309.024 95.09 308.964 95.228 308.844 95.372L307.494 96.794C307.302 96.986 307.116 97.082 306.936 97.082ZM319.942 97.586C320.506 97.586 321.028 97.652 321.508 97.784C322 97.904 322.39 98.072 322.678 98.288C322.978 98.504 323.128 98.738 323.128 98.99C323.128 99.122 323.08 99.242 322.984 99.35C322.9 99.458 322.792 99.512 322.66 99.512C322.54 99.512 322.438 99.488 322.354 99.44C322.282 99.392 322.198 99.32 322.102 99.224C321.946 99.068 321.796 98.954 321.652 98.882C321.472 98.798 321.232 98.732 320.932 98.684C320.644 98.624 320.332 98.594 319.996 98.594C319.336 98.594 318.73 98.762 318.178 99.098C317.638 99.434 317.212 99.89 316.9 100.466C316.588 101.042 316.432 101.678 316.432 102.374C316.432 103.094 316.582 103.742 316.882 104.318C317.182 104.894 317.596 105.35 318.124 105.686C318.664 106.01 319.276 106.172 319.96 106.172C320.392 106.172 320.734 106.136 320.986 106.064C321.25 105.992 321.508 105.89 321.76 105.758C321.844 105.71 321.988 105.602 322.192 105.434C322.288 105.35 322.372 105.29 322.444 105.254C322.516 105.206 322.594 105.182 322.678 105.182C322.822 105.182 322.936 105.23 323.02 105.326C323.104 105.41 323.146 105.524 323.146 105.668C323.146 105.872 323.002 106.094 322.714 106.334C322.426 106.562 322.03 106.76 321.526 106.928C321.022 107.096 320.464 107.18 319.852 107.18C318.976 107.18 318.196 106.976 317.512 106.568C316.828 106.148 316.294 105.572 315.91 104.84C315.538 104.108 315.352 103.286 315.352 102.374C315.352 101.498 315.544 100.7 315.928 99.98C316.312 99.248 316.852 98.666 317.548 98.234C318.244 97.802 319.042 97.586 319.942 97.586ZM328.054 106.46C328.054 106.616 328 106.748 327.892 106.856C327.796 106.952 327.67 107 327.514 107C327.358 107 327.226 106.952 327.118 106.856C327.022 106.748 326.974 106.616 326.974 106.46V98.18C326.974 98.024 327.022 97.898 327.118 97.802C327.226 97.694 327.358 97.64 327.514 97.64C327.67 97.64 327.796 97.694 327.892 97.802C328 97.898 328.054 98.024 328.054 98.18V106.46ZM327.514 96.434C327.274 96.434 327.088 96.38 326.956 96.272C326.824 96.152 326.758 95.984 326.758 95.768V95.588C326.758 95.372 326.824 95.21 326.956 95.102C327.1 94.982 327.292 94.922 327.532 94.922C328.012 94.922 328.252 95.144 328.252 95.588V95.768C328.252 95.984 328.186 96.152 328.054 96.272C327.934 96.38 327.754 96.434 327.514 96.434ZM333.848 106.46C333.848 106.616 333.794 106.748 333.686 106.856C333.59 106.952 333.464 107 333.308 107C333.152 107 333.02 106.952 332.912 106.856C332.816 106.748 332.768 106.616 332.768 106.46V94.22C332.768 94.064 332.816 93.938 332.912 93.842C333.02 93.734 333.152 93.68 333.308 93.68C333.464 93.68 333.59 93.734 333.686 93.842C333.794 93.938 333.848 94.064 333.848 94.22V106.46Z" fill="white"/>
</g>
</svg>
