<svg width="30" height="31" viewBox="0 0 30 31" fill="none" xmlns="http://www.w3.org/2000/svg">
<path id="engine-icon" fill-rule="evenodd" clip-rule="evenodd" d="M13.1372 0.598294C12.0109 1.28506 11.4035 2.17574 11.4035 3.1408C11.4035 3.47717 11.2185 4.0057 10.992 4.31499C10.6094 4.83863 10.5033 4.82036 9.46061 4.05105C7.71221 2.76137 6.39642 2.9258 4.67216 4.64973C3.01903 6.30319 2.8174 7.57265 3.92047 9.38206C4.75764 10.7553 4.54231 11.381 3.23207 11.381C2.04907 11.381 0.464124 12.7767 0.128408 14.1144C-0.450042 16.42 0.986133 18.7244 3.22457 19.0823C4.73252 19.3234 4.89761 19.8111 3.89959 21.0796C2.73062 22.5657 3.25817 24.9278 5.079 26.3601C6.22546 27.2618 8.40713 27.2758 9.53499 26.3888C9.9911 26.0299 10.5092 25.7363 10.686 25.7363C11.0759 25.7363 11.4008 26.5163 11.4106 27.4758C11.4348 29.8112 15.1009 31.1302 17.5008 29.667C18.4538 29.0859 19.2258 27.515 19.2316 26.1441C19.2346 25.5522 19.9282 25.656 20.8649 26.3888C21.3856 26.7959 22.1957 27.0295 23.1056 27.0341C24.3303 27.0403 24.7081 26.8635 25.7972 25.7747C26.8445 24.7275 27.0637 24.2831 27.0637 23.2088C27.0637 22.4032 26.8158 21.5938 26.4112 21.0796C25.4135 19.8111 25.5783 19.3234 27.0859 19.0823C27.8353 18.9625 28.7586 18.5247 29.2065 18.0768C29.8832 17.4001 30 16.973 30 15.1767C30 13.225 29.9263 13.0084 28.9961 12.2257C28.4118 11.734 27.5896 11.381 27.0285 11.381C25.7756 11.381 25.5166 10.6499 26.3799 9.55237C27.125 8.60525 27.2699 6.95929 26.7133 5.76846C26.1672 4.59981 24.1577 3.22465 22.9963 3.22465C22.4178 3.22465 21.4945 3.5757 20.8795 4.02952C20.2796 4.47225 19.6805 4.76718 19.5481 4.68562C19.416 4.60373 19.2052 3.98482 19.0799 3.3098C18.5582 0.498461 15.5508 -0.873442 13.1372 0.598294ZM16.5508 2.42761C17.0376 2.76822 17.276 3.2713 17.276 3.95611C17.276 6.15605 19.8039 7.25259 21.6064 5.83469C22.7594 4.9277 23.6057 5.01873 24.5594 6.15246C25.4585 7.22062 25.4171 8.06236 24.421 8.96348C23.0563 10.1987 24.2018 13.0123 26.0693 13.0123C27.4389 13.0123 28.3687 13.8677 28.3687 15.1281C28.3687 16.4863 27.6484 17.2536 26.373 17.2536C25.1124 17.2536 23.8012 18.5443 23.8012 19.7854C23.8012 20.2969 24.1525 21.1918 24.5819 21.7739C25.4892 23.0035 25.3841 23.8391 24.2064 24.7653C23.1747 25.577 23.1578 25.5757 21.7115 24.5944C21.0505 24.1458 20.1425 23.7787 19.6936 23.7787C18.5644 23.7787 17.276 25.1493 17.276 26.3506C17.276 27.5998 16.5142 28.3463 15.2392 28.3463C13.8856 28.3463 13.0347 27.5176 13.0347 26.1989C13.0347 24.1431 10.4263 23.0502 8.91315 24.472C7.94483 25.3819 6.54813 25.3656 5.79513 24.4358C5.02876 23.4893 5.04768 22.613 5.85712 21.584C6.80424 20.3798 6.71289 18.7658 5.64995 17.9299C5.17721 17.558 4.41801 17.2536 3.96288 17.2536C2.12313 17.2536 1.2628 14.9966 2.59457 13.6648C2.95704 13.3023 3.68198 13.0123 4.22585 13.0123C6.2868 13.0123 7.25088 10.4538 5.85712 8.68192C5.01701 7.61408 5.03235 6.87577 5.91389 5.93713C6.78499 5.01024 7.61727 4.97957 8.70435 5.83469C10.4762 7.22845 13.0347 6.26437 13.0347 4.20341C13.0347 2.30852 14.9792 1.3265 16.5508 2.42761ZM13.4471 8.74586C10.0521 9.60489 7.86457 13.4567 8.79309 16.9411C9.36469 19.0865 11.8145 21.3697 13.8765 21.6789C15.9762 21.9938 17.7654 21.5341 17.7654 20.6793C17.7654 20.1038 17.4868 20.0053 15.4043 19.8431C12.8706 19.6457 11.8501 19.0467 10.8831 17.1884C8.83452 13.2511 13.7225 8.73542 17.5237 11.0531C19.138 12.0375 19.8835 13.5056 19.8848 15.7039C19.8861 17.4706 19.9321 17.5799 20.676 17.5799C21.6381 17.5799 22.0191 16.299 21.6965 14.148C21.1386 10.4274 17.1426 7.81049 13.4471 8.74586Z" fill="#717171"/>
</svg>
