<svg width="30" height="30" viewBox="0 0 30 30" fill="none" xmlns="http://www.w3.org/2000/svg">
<path id="enter-icon" fill-rule="evenodd" clip-rule="evenodd" d="M1.24479 1.24479C0.0827424 2.40684 0 2.6492 0 4.88433C0 6.29607 0.173172 7.38599 0.421764 7.53976C1.11885 7.97068 1.83057 6.56004 1.83057 4.74631C1.83057 3.47919 2.02791 2.86375 2.60124 2.34496C3.32468 1.69035 4.07632 1.64751 14.8276 1.64751C25.5789 1.64751 26.3306 1.69035 27.054 2.34496C27.8071 3.0263 27.8247 3.3115 27.8247 14.8276C27.8247 25.7799 27.7775 26.6557 27.1551 27.2188C26.5616 27.7559 25.1572 27.8247 14.7639 27.8247C1.41613 27.8247 1.83057 27.9203 1.83057 24.8453C1.83057 23.0864 1.11006 21.6901 0.421764 22.1155C0.173172 22.2693 0 23.3592 0 24.7709C0 26.9936 0.0871357 27.2528 1.21184 28.3775C2.83995 30.0056 3.66627 30.0931 16.1262 29.9544C30.8118 29.7911 29.7911 30.8118 29.9544 16.1262C30.0931 3.66627 30.0056 2.83995 28.3775 1.21184L27.1657 0H14.8276H2.48958L1.24479 1.24479ZM13.7904 7.9326C13.1633 8.55975 13.7421 9.54973 16.109 11.8987C17.5186 13.2973 18.6718 14.5875 18.6718 14.7654C18.6718 14.9433 17.5039 16.2932 16.0765 17.7653C14.3806 19.5143 13.5257 20.6745 13.6103 21.1131C13.8369 22.2905 14.646 21.8501 17.4208 19.0379C19.8822 16.5432 20.1304 16.1574 20.1334 14.8192C20.1359 13.4664 19.9034 13.1146 17.2909 10.5174C14.3901 7.63349 14.217 7.50571 13.7904 7.9326ZM0.125944 14.478C0.00329567 14.798 0.0604084 15.2175 0.252618 15.4098C0.457643 15.6148 3.40194 15.7184 7.34902 15.6598C13.8179 15.5639 14.0954 15.5298 14.0954 14.8276C14.0954 14.1251 13.8183 14.0914 7.22234 13.9958C1.21953 13.9087 0.321083 13.9698 0.125944 14.478Z" fill="#717171"/>
</svg>
