<svg width="350" height="135" viewBox="0 0 350 135" fill="none" xmlns="http://www.w3.org/2000/svg">
<g id="logo-orange">
<rect width="350" height="135" fill="white"/>
<g id="Group 693">
<path id="A1-logo" fill-rule="evenodd" clip-rule="evenodd" d="M23 85.6982V64.5001C25 43.5 34.5 23.5 48 23C58 24.5 63.6723 27.3114 68 41.5C69.8301 47.5 70.3604 52.1304 71 58.5001V86.6982C67 91.0001 58 88.5001 58 86.6982L57.5 77.9999H36L35.5 83.0001L35 85.6982C34.5 90.0001 24.5 90.5001 23 85.6982ZM57 54.0001L57.5 64.5001H37V58.5001C37 51.0001 43.5 38.5 48 38.5C51.5 38 56 47 57 54.0001Z" fill="#FE4400" stroke="#F7EAE6"/>
<path id="A2-logo" fill-rule="evenodd" clip-rule="evenodd" d="M263 85.6982V64.5001C265 43.5 274.5 23.5 288 23C298 24.5 303.672 27.3114 308 41.5C309.83 47.5 310.36 52.1304 311 58.5001V86.6982C307 91.0001 298 88.5001 298 86.6982L297.5 77.9999H276L275.5 83.0001L275 85.6982C274.5 90.0001 264.5 90.5001 263 85.6982ZM297 54.0001L297.5 64.5001H277V58.5001C277 51.0001 283.5 38.5 288 38.5C291.5 38 296 47 297 54.0001Z" fill="#FE4400" stroke="#F7EAE6"/>
<g id="g-logo">
<path fill-rule="evenodd" clip-rule="evenodd" d="M104.123 43.1239C84.0911 43.7155 76.623 52.624 76.1231 63.1239C76.1075 63.7405 76.0844 64.3239 76.0624 64.8792C75.9447 67.853 75.8591 70.0173 77.1231 72.1239C81.2153 79.6897 84.6231 83.1239 92.1231 84.1239H96.6231H101.123C102.31 84.1239 102.871 83.8109 103.549 83.4325C103.728 83.3327 103.914 83.2284 104.123 83.124V89.1239C103.123 94.624 98.1231 97.1239 90.6231 97.1239L88.7481 96.8739L86.8731 96.6239L84.9981 96.3739L83.1231 96.1239C80.7179 96.6049 80.3944 99.8791 80.1516 102.337C80.142 102.434 80.1326 102.53 80.1231 102.624C80.2913 108.513 83.6231 110.624 90.6231 111.124H97.1231C105.623 111.124 114.123 102.124 115.623 97.1239C117.123 92.624 117.123 90.624 117.123 89.1239V43.1239C116.497 40.8715 115.734 40.0923 113.123 40.1239H108.623C105.597 39.7152 104.486 40.22 104.123 43.1239ZM105.123 67.6239V58.1239C104.253 56.3837 103.165 56.2953 101.769 56.1819C101.561 56.165 101.345 56.1475 101.123 56.1239H95.1231C91.6232 56.6239 89.1232 63.1239 91.1231 67.6239C94.1232 72.1239 100.123 73.1239 105.123 67.6239Z" fill="#FE4400"/>
<path d="M101.123 84.1239C99.6231 84.1239 96.6231 84.1239 96.6231 84.1239M101.123 84.1239H96.6231M101.123 84.1239C102.31 84.1239 102.871 83.8109 103.549 83.4325C103.728 83.3327 103.914 83.2284 104.123 83.124V89.1239C103.123 94.624 98.1231 97.1239 90.6231 97.1239L88.7481 96.8739L86.8731 96.6239L84.9981 96.3739L83.1231 96.1239C80.7179 96.6049 80.3944 99.8791 80.1516 102.337C80.142 102.434 80.1326 102.53 80.1231 102.624C80.2913 108.513 83.6231 110.624 90.6231 111.124H97.1231C105.623 111.124 114.123 102.124 115.623 97.1239C117.123 92.624 117.123 90.624 117.123 89.1239V43.1239C116.497 40.8715 115.734 40.0923 113.123 40.1239H108.623C105.597 39.7152 104.486 40.22 104.123 43.1239C84.0911 43.7155 76.623 52.624 76.1231 63.1239C76.1075 63.7405 76.0844 64.3239 76.0624 64.8792C75.9447 67.853 75.8591 70.0173 77.1231 72.1239C81.2153 79.6897 84.6231 83.1239 92.1231 84.1239H96.6231M105.123 58.1239V67.6239C100.123 73.1239 94.1232 72.1239 91.1231 67.6239C89.1232 63.1239 91.6232 56.6239 95.1231 56.1239H101.123C101.345 56.1475 101.561 56.165 101.769 56.1819C103.165 56.2953 104.253 56.3837 105.123 58.1239Z" stroke="#F7EAE6"/>
</g>
<g id="e-logo">
<path fill-rule="evenodd" clip-rule="evenodd" d="M137.58 67.0373H160.08C162.789 66.7898 163.279 64.0259 162.58 55.0373C162.58 50.0371 154.58 42.5371 145.58 42.0373C136.58 41.5374 129.08 46.0371 125.08 57.0373C123.829 63.5936 123.668 67.1076 124.58 73.0373C125.08 78.0373 130.952 85.4805 137.58 88.0373C142.58 89.5372 148.291 89.4588 153.58 88.0373C159.042 85.2358 161.58 83.5371 161.58 78.0373C161.275 73.1089 159.776 72.0292 155.58 72.0373C154.354 71.9094 153.217 72.9143 151.925 74.0561C150.352 75.4454 148.55 77.0373 146.08 77.0373C141.58 77.0373 137.58 73.5371 137.58 71.0373V67.0373ZM150.58 57.0373H139.58C139.58 57.0373 140.568 51.6303 145.58 52.0373C150.402 52.4289 150.496 54.8556 150.571 56.8084C150.574 56.8855 150.577 56.9618 150.58 57.0373Z" fill="#FE4400"/>
<path d="M137.58 67.0373C146.367 67.0373 151.294 67.0373 160.08 67.0373M137.58 67.0373C137.58 68.5994 137.58 69.4752 137.58 71.0373M137.58 67.0373H160.08M137.58 67.0373V71.0373M160.08 67.0373C162.789 66.7898 163.279 64.0259 162.58 55.0373C162.58 50.0371 154.58 42.5371 145.58 42.0373C136.58 41.5374 129.08 46.0371 125.08 57.0373C123.829 63.5936 123.668 67.1076 124.58 73.0373C125.08 78.0373 130.952 85.4805 137.58 88.0373C142.58 89.5372 148.291 89.4588 153.58 88.0373C159.042 85.2358 161.58 83.5371 161.58 78.0373C161.275 73.1089 159.776 72.0292 155.58 72.0373C154.354 71.9094 153.217 72.9143 151.925 74.0561C150.352 75.4454 148.55 77.0373 146.08 77.0373C141.58 77.0373 137.58 73.5371 137.58 71.0373M139.58 57.0373H150.58C150.577 56.9618 150.574 56.8855 150.571 56.8084C150.496 54.8556 150.402 52.4289 145.58 52.0373C140.568 51.6303 139.58 57.0373 139.58 57.0373Z" stroke="#F7EAE6"/>
</g>
<path id="n-logo" d="M168 43.5799V85.0799C168 88.0798 170.905 88.2533 175.5 88.0799C180.528 88.3042 181.889 87.5787 182 85.0799V64.0799C182 57.5802 185.589 54.1402 191 54.0799C195 53.5802 197.171 56.4347 199 62.5799C199.5 69.5801 198 72.0801 198 75.0799V84.5799C199 88.0799 200.361 88.1834 205.5 88.0799C210.322 88.2349 211.5 88.0799 212 85.0799V60.0799C211.463 51.8908 206.5 46.5802 203 44.0799C195.563 41.2063 190.955 41.2723 182 44.0799C182 44.0799 181 44.0797 181 43.5799V41.0799C181 39.5801 179.5 40.08 178 40.0799H172C169.509 39.9753 168.602 40.704 168 43.5799Z" fill="#FE4400" stroke="#F7EAE6"/>
<g id="i-logo">
<path d="M330.062 85.5692V50.0691C330.062 48.5693 329.562 48.0691 327.562 48.0691H319.062C317.062 49.0693 316.86 70.9138 317.062 85.5692C317.376 87.8716 317.061 88.0693 319.062 88.0691H327.062C329 87.9147 330.062 87.5693 330.062 85.5692Z" fill="#FE4400"/>
<path d="M327.062 41.5693C324.562 42.5693 321.062 38.0693 321.562 36.5692C324.834 32.1227 327.258 29.3364 333.062 23.5692C335.562 21.5691 336.562 21.5694 338.562 23.0692L341.062 25.0692C342.062 26.0693 342.352 27.423 341.062 29.0692C336.772 34.5425 333.843 37.3203 327.062 41.5693Z" fill="#FE4400"/>
<path d="M330.062 85.5692V50.0691C330.062 48.5693 329.562 48.0691 327.562 48.0691H319.062C317.062 49.0693 316.86 70.9138 317.062 85.5692C317.376 87.8716 317.061 88.0693 319.062 88.0691H327.062C329 87.9147 330.062 87.5693 330.062 85.5692Z" stroke="#F7EAE6"/>
<path d="M327.062 41.5693C324.562 42.5693 321.062 38.0693 321.562 36.5692C324.834 32.1227 327.258 29.3364 333.062 23.5692C335.562 21.5691 336.562 21.5694 338.562 23.0692L341.062 25.0692C342.062 26.0693 342.352 27.423 341.062 29.0692C336.772 34.5425 333.843 37.3203 327.062 41.5693Z" stroke="#F7EAE6"/>
</g>
<path id="d-logo" fill-rule="evenodd" clip-rule="evenodd" d="M259.029 27.0116V85.5116C258.986 87.9727 257.892 88.4396 255.029 88.5116H234.029C224.529 87.5115 218.529 78.0115 219.029 71.0116V63.0116C220.029 53.5115 226.529 45.0115 236.029 43.5116H247.029V27.0116C247.529 22.5115 260.029 23.5117 259.029 27.0116ZM246.029 74.5116V56.5116C243.944 55.2608 242.543 55.3354 240.406 55.4491C239.98 55.4718 239.525 55.496 239.029 55.5116C235.529 56.0115 232.692 60.3301 232.029 66.0116C232.029 71.0116 233.905 72.8348 237.029 74.5116H246.029Z" fill="#FE4400" stroke="#F7EAE6"/>
</g>
<path id="subtitle" d="M158.892 98.802C159.048 98.802 159.174 98.856 159.27 98.964C159.378 99.072 159.432 99.204 159.432 99.36V107.46C159.432 107.616 159.378 107.748 159.27 107.856C159.174 107.952 159.048 108 158.892 108C158.736 108 158.604 107.952 158.496 107.856C158.4 107.748 158.352 107.616 158.352 107.46V106.254C158.052 106.794 157.602 107.25 157.002 107.622C156.402 107.994 155.748 108.18 155.04 108.18C154.236 108.18 153.51 107.97 152.862 107.55C152.226 107.13 151.722 106.554 151.35 105.822C150.99 105.09 150.81 104.268 150.81 103.356C150.81 102.444 150.996 101.628 151.368 100.908C151.74 100.176 152.244 99.606 152.88 99.198C153.528 98.79 154.242 98.586 155.022 98.586C155.742 98.586 156.402 98.76 157.002 99.108C157.602 99.456 158.052 99.912 158.352 100.476V99.36C158.352 99.204 158.4 99.072 158.496 98.964C158.604 98.856 158.736 98.802 158.892 98.802ZM155.148 107.172C155.772 107.172 156.33 107.01 156.822 106.686C157.326 106.35 157.716 105.894 157.992 105.318C158.28 104.73 158.424 104.076 158.424 103.356C158.424 102.66 158.28 102.024 157.992 101.448C157.716 100.872 157.326 100.422 156.822 100.098C156.33 99.762 155.772 99.594 155.148 99.594C154.524 99.594 153.96 99.756 153.456 100.08C152.964 100.404 152.574 100.854 152.286 101.43C152.01 101.994 151.872 102.636 151.872 103.356C151.872 104.076 152.01 104.73 152.286 105.318C152.562 105.894 152.946 106.35 153.438 106.686C153.942 107.01 154.512 107.172 155.148 107.172ZM171.826 98.802C171.982 98.802 172.108 98.856 172.204 98.964C172.312 99.06 172.366 99.192 172.366 99.36V107.154C172.366 108.09 172.168 108.888 171.772 109.548C171.388 110.22 170.854 110.73 170.17 111.078C169.498 111.426 168.724 111.6 167.848 111.6C167.428 111.6 166.984 111.546 166.516 111.438C166.06 111.33 165.664 111.192 165.328 111.024C165.004 110.856 164.818 110.682 164.77 110.502C164.686 110.418 164.644 110.322 164.644 110.214C164.644 110.094 164.698 109.998 164.806 109.926C164.854 109.89 164.914 109.872 164.986 109.872C165.058 109.872 165.196 109.914 165.4 109.998L165.778 110.16C166.522 110.448 167.218 110.592 167.866 110.592C168.934 110.592 169.768 110.286 170.368 109.674C170.98 109.074 171.286 108.258 171.286 107.226V106.11C170.986 106.758 170.512 107.268 169.864 107.64C169.216 108 168.538 108.18 167.83 108.18C167.002 108.18 166.252 107.976 165.58 107.568C164.92 107.148 164.398 106.572 164.014 105.84C163.63 105.108 163.438 104.286 163.438 103.374C163.438 102.474 163.63 101.658 164.014 100.926C164.398 100.194 164.92 99.624 165.58 99.216C166.252 98.796 166.996 98.586 167.812 98.586C168.568 98.586 169.258 98.778 169.882 99.162C170.518 99.534 170.986 99.984 171.286 100.512V99.36C171.286 99.204 171.334 99.072 171.43 98.964C171.538 98.856 171.67 98.802 171.826 98.802ZM167.92 107.172C168.58 107.172 169.168 107.016 169.684 106.704C170.212 106.38 170.62 105.93 170.908 105.354C171.208 104.766 171.358 104.106 171.358 103.374C171.358 102.642 171.208 101.988 170.908 101.412C170.62 100.836 170.212 100.392 169.684 100.08C169.168 99.756 168.58 99.594 167.92 99.594C167.272 99.594 166.684 99.762 166.156 100.098C165.64 100.422 165.232 100.872 164.932 101.448C164.644 102.024 164.5 102.666 164.5 103.374C164.5 104.094 164.644 104.742 164.932 105.318C165.232 105.894 165.64 106.35 166.156 106.686C166.684 107.01 167.272 107.172 167.92 107.172ZM184.437 102.87C184.437 103.014 184.383 103.14 184.275 103.248C184.167 103.344 184.041 103.392 183.897 103.392H177.093C177.093 104.112 177.237 104.76 177.525 105.336C177.825 105.9 178.245 106.35 178.785 106.686C179.337 107.01 179.985 107.172 180.729 107.172C181.305 107.172 181.821 107.052 182.277 106.812C182.733 106.572 183.099 106.266 183.375 105.894C183.507 105.786 183.633 105.732 183.753 105.732C183.873 105.732 183.981 105.78 184.077 105.876C184.173 105.972 184.221 106.08 184.221 106.2C184.221 106.332 184.161 106.458 184.041 106.578C183.657 107.046 183.171 107.43 182.583 107.73C182.007 108.03 181.395 108.18 180.747 108.18C179.823 108.18 179.007 107.982 178.299 107.586C177.591 107.19 177.039 106.638 176.643 105.93C176.247 105.21 176.049 104.382 176.049 103.446C176.049 102.462 176.241 101.604 176.625 100.872C177.021 100.128 177.543 99.564 178.191 99.18C178.839 98.784 179.529 98.586 180.261 98.586C180.981 98.586 181.653 98.754 182.277 99.09C182.913 99.426 183.429 99.918 183.825 100.566C184.221 101.214 184.425 101.982 184.437 102.87ZM180.261 99.63C179.565 99.63 178.917 99.87 178.317 100.35C177.729 100.83 177.351 101.52 177.183 102.42H183.321V102.276C183.261 101.736 183.081 101.268 182.781 100.872C182.481 100.464 182.103 100.158 181.647 99.954C181.203 99.738 180.741 99.63 180.261 99.63ZM192.801 98.586C193.917 98.586 194.733 98.916 195.249 99.576C195.777 100.224 196.041 101.088 196.041 102.168V107.46C196.041 107.616 195.987 107.748 195.879 107.856C195.771 107.952 195.645 108 195.501 108C195.345 108 195.213 107.952 195.105 107.856C195.009 107.748 194.961 107.616 194.961 107.46V102.222C194.961 101.442 194.763 100.812 194.367 100.332C193.983 99.84 193.383 99.594 192.567 99.594C192.051 99.594 191.559 99.714 191.091 99.954C190.635 100.194 190.263 100.518 189.975 100.926C189.687 101.322 189.543 101.754 189.543 102.222V107.46C189.543 107.616 189.489 107.748 189.381 107.856C189.285 107.952 189.159 108 189.003 108C188.847 108 188.715 107.952 188.607 107.856C188.511 107.748 188.463 107.616 188.463 107.46V99.396C188.463 99.24 188.511 99.114 188.607 99.018C188.715 98.91 188.847 98.856 189.003 98.856C189.159 98.856 189.285 98.91 189.381 99.018C189.489 99.114 189.543 99.24 189.543 99.396V100.386C189.867 99.87 190.329 99.444 190.929 99.108C191.541 98.76 192.165 98.586 192.801 98.586ZM208.139 94.68C208.295 94.68 208.421 94.734 208.517 94.842C208.625 94.938 208.679 95.064 208.679 95.22V107.46C208.679 107.616 208.625 107.748 208.517 107.856C208.421 107.952 208.295 108 208.139 108C207.983 108 207.851 107.952 207.743 107.856C207.647 107.748 207.599 107.616 207.599 107.46V106.2C207.299 106.752 206.849 107.22 206.249 107.604C205.661 107.988 205.007 108.18 204.287 108.18C203.495 108.18 202.775 107.976 202.127 107.568C201.491 107.148 200.987 106.572 200.615 105.84C200.243 105.108 200.057 104.286 200.057 103.374C200.057 102.474 200.243 101.658 200.615 100.926C200.987 100.194 201.491 99.624 202.127 99.216C202.775 98.796 203.489 98.586 204.269 98.586C204.977 98.586 205.631 98.766 206.231 99.126C206.831 99.474 207.287 99.93 207.599 100.494V95.22C207.599 95.064 207.647 94.938 207.743 94.842C207.851 94.734 207.983 94.68 208.139 94.68ZM204.395 107.172C205.019 107.172 205.577 107.01 206.069 106.686C206.573 106.362 206.963 105.912 207.239 105.336C207.527 104.748 207.671 104.094 207.671 103.374C207.671 102.666 207.527 102.024 207.239 101.448C206.963 100.872 206.573 100.422 206.069 100.098C205.577 99.762 205.019 99.594 204.395 99.594C203.771 99.594 203.207 99.762 202.703 100.098C202.211 100.422 201.821 100.872 201.533 101.448C201.257 102.024 201.119 102.666 201.119 103.374C201.119 104.094 201.257 104.742 201.533 105.318C201.821 105.894 202.211 106.35 202.703 106.686C203.207 107.01 203.771 107.172 204.395 107.172ZM220.767 98.802C220.923 98.802 221.049 98.856 221.145 98.964C221.253 99.072 221.307 99.204 221.307 99.36V107.46C221.307 107.616 221.253 107.748 221.145 107.856C221.049 107.952 220.923 108 220.767 108C220.611 108 220.479 107.952 220.371 107.856C220.275 107.748 220.227 107.616 220.227 107.46V106.254C219.927 106.794 219.477 107.25 218.877 107.622C218.277 107.994 217.623 108.18 216.915 108.18C216.111 108.18 215.385 107.97 214.737 107.55C214.101 107.13 213.597 106.554 213.225 105.822C212.865 105.09 212.685 104.268 212.685 103.356C212.685 102.444 212.871 101.628 213.243 100.908C213.615 100.176 214.119 99.606 214.755 99.198C215.403 98.79 216.117 98.586 216.897 98.586C217.617 98.586 218.277 98.76 218.877 99.108C219.477 99.456 219.927 99.912 220.227 100.476V99.36C220.227 99.204 220.275 99.072 220.371 98.964C220.479 98.856 220.611 98.802 220.767 98.802ZM217.023 107.172C217.647 107.172 218.205 107.01 218.697 106.686C219.201 106.35 219.591 105.894 219.867 105.318C220.155 104.73 220.299 104.076 220.299 103.356C220.299 102.66 220.155 102.024 219.867 101.448C219.591 100.872 219.201 100.422 218.697 100.098C218.205 99.762 217.647 99.594 217.023 99.594C216.399 99.594 215.835 99.756 215.331 100.08C214.839 100.404 214.449 100.854 214.161 101.43C213.885 101.994 213.747 102.636 213.747 103.356C213.747 104.076 213.885 104.73 214.161 105.318C214.437 105.894 214.821 106.35 215.313 106.686C215.817 107.01 216.387 107.172 217.023 107.172ZM236.365 98.73C237.445 98.73 238.237 99.066 238.741 99.738C239.257 100.398 239.515 101.274 239.515 102.366V107.46C239.515 107.616 239.461 107.748 239.353 107.856C239.257 107.952 239.131 108 238.975 108C238.819 108 238.687 107.952 238.579 107.856C238.483 107.748 238.435 107.616 238.435 107.46V102.42C238.435 101.628 238.243 100.986 237.859 100.494C237.487 99.99 236.905 99.738 236.113 99.738C235.609 99.738 235.129 99.858 234.673 100.098C234.229 100.338 233.869 100.668 233.593 101.088C233.317 101.496 233.179 101.94 233.179 102.42V107.46C233.179 107.616 233.125 107.748 233.017 107.856C232.921 107.952 232.795 108 232.639 108C232.483 108 232.351 107.952 232.243 107.856C232.147 107.748 232.099 107.616 232.099 107.46V102.366C232.099 101.586 231.919 100.956 231.559 100.476C231.199 99.984 230.635 99.738 229.867 99.738C229.375 99.738 228.907 99.858 228.463 100.098C228.031 100.338 227.677 100.662 227.401 101.07C227.137 101.466 227.005 101.898 227.005 102.366V107.46C227.005 107.616 226.951 107.748 226.843 107.856C226.747 107.952 226.621 108 226.465 108C226.309 108 226.177 107.952 226.069 107.856C225.973 107.748 225.925 107.616 225.925 107.46V99.396C225.925 99.24 225.973 99.114 226.069 99.018C226.177 98.91 226.309 98.856 226.465 98.856C226.621 98.856 226.747 98.91 226.843 99.018C226.951 99.114 227.005 99.24 227.005 99.396V100.44C227.329 99.948 227.767 99.54 228.319 99.216C228.871 98.892 229.453 98.73 230.065 98.73C230.761 98.73 231.361 98.898 231.865 99.234C232.369 99.57 232.729 100.062 232.945 100.71C233.197 100.182 233.659 99.72 234.331 99.324C235.003 98.928 235.681 98.73 236.365 98.73ZM251.919 102.87C251.919 103.014 251.865 103.14 251.757 103.248C251.649 103.344 251.523 103.392 251.379 103.392H244.575C244.575 104.112 244.719 104.76 245.007 105.336C245.307 105.9 245.727 106.35 246.267 106.686C246.819 107.01 247.467 107.172 248.211 107.172C248.787 107.172 249.303 107.052 249.759 106.812C250.215 106.572 250.581 106.266 250.857 105.894C250.989 105.786 251.115 105.732 251.235 105.732C251.355 105.732 251.463 105.78 251.559 105.876C251.655 105.972 251.703 106.08 251.703 106.2C251.703 106.332 251.643 106.458 251.523 106.578C251.139 107.046 250.653 107.43 250.065 107.73C249.489 108.03 248.877 108.18 248.229 108.18C247.305 108.18 246.489 107.982 245.781 107.586C245.073 107.19 244.521 106.638 244.125 105.93C243.729 105.21 243.531 104.382 243.531 103.446C243.531 102.462 243.723 101.604 244.107 100.872C244.503 100.128 245.025 99.564 245.673 99.18C246.321 98.784 247.011 98.586 247.743 98.586C248.463 98.586 249.135 98.754 249.759 99.09C250.395 99.426 250.911 99.918 251.307 100.566C251.703 101.214 251.907 101.982 251.919 102.87ZM247.743 99.63C247.047 99.63 246.399 99.87 245.799 100.35C245.211 100.83 244.833 101.52 244.665 102.42H250.803V102.276C250.743 101.736 250.563 101.268 250.263 100.872C249.963 100.464 249.585 100.158 249.129 99.954C248.685 99.738 248.223 99.63 247.743 99.63ZM260.283 98.586C261.399 98.586 262.215 98.916 262.731 99.576C263.259 100.224 263.523 101.088 263.523 102.168V107.46C263.523 107.616 263.469 107.748 263.361 107.856C263.253 107.952 263.127 108 262.983 108C262.827 108 262.695 107.952 262.587 107.856C262.491 107.748 262.443 107.616 262.443 107.46V102.222C262.443 101.442 262.245 100.812 261.849 100.332C261.465 99.84 260.865 99.594 260.049 99.594C259.533 99.594 259.041 99.714 258.573 99.954C258.117 100.194 257.745 100.518 257.457 100.926C257.169 101.322 257.025 101.754 257.025 102.222V107.46C257.025 107.616 256.971 107.748 256.863 107.856C256.767 107.952 256.641 108 256.485 108C256.329 108 256.197 107.952 256.089 107.856C255.993 107.748 255.945 107.616 255.945 107.46V99.396C255.945 99.24 255.993 99.114 256.089 99.018C256.197 98.91 256.329 98.856 256.485 98.856C256.641 98.856 256.767 98.91 256.863 99.018C256.971 99.114 257.025 99.24 257.025 99.396V100.386C257.349 99.87 257.811 99.444 258.411 99.108C259.023 98.76 259.647 98.586 260.283 98.586ZM269.951 99.846V105.876C269.951 106.332 270.035 106.644 270.203 106.812C270.371 106.968 270.593 107.046 270.869 107.046C270.941 107.046 271.031 107.034 271.139 107.01C271.247 106.974 271.331 106.956 271.391 106.956C271.499 106.956 271.589 107.004 271.661 107.1C271.745 107.184 271.787 107.286 271.787 107.406C271.787 107.574 271.691 107.718 271.499 107.838C271.307 107.946 271.079 108 270.815 108C270.491 108 270.203 107.97 269.951 107.91C269.699 107.85 269.453 107.67 269.213 107.37C268.985 107.07 268.871 106.59 268.871 105.93V99.846H267.557C267.413 99.846 267.287 99.798 267.179 99.702C267.083 99.606 267.035 99.486 267.035 99.342C267.035 99.198 267.083 99.078 267.179 98.982C267.287 98.886 267.413 98.838 267.557 98.838H268.871V96.84C268.871 96.684 268.919 96.558 269.015 96.462C269.123 96.354 269.255 96.3 269.411 96.3C269.567 96.3 269.693 96.354 269.789 96.462C269.897 96.558 269.951 96.684 269.951 96.84V98.838H271.751C271.883 98.838 271.997 98.892 272.093 99C272.201 99.108 272.255 99.228 272.255 99.36C272.255 99.504 272.207 99.624 272.111 99.72C272.015 99.804 271.895 99.846 271.751 99.846H269.951ZM284.459 103.392C284.459 104.292 284.261 105.108 283.865 105.84C283.469 106.572 282.923 107.148 282.227 107.568C281.531 107.976 280.757 108.18 279.905 108.18C279.053 108.18 278.279 107.976 277.583 107.568C276.887 107.148 276.341 106.572 275.945 105.84C275.549 105.108 275.351 104.292 275.351 103.392C275.351 102.492 275.549 101.676 275.945 100.944C276.341 100.212 276.887 99.636 277.583 99.216C278.279 98.796 279.053 98.586 279.905 98.586C280.757 98.586 281.531 98.796 282.227 99.216C282.923 99.636 283.469 100.212 283.865 100.944C284.261 101.676 284.459 102.492 284.459 103.392ZM283.379 103.392C283.379 102.672 283.229 102.024 282.929 101.448C282.629 100.872 282.209 100.422 281.669 100.098C281.141 99.762 280.553 99.594 279.905 99.594C279.257 99.594 278.669 99.762 278.141 100.098C277.613 100.422 277.193 100.872 276.881 101.448C276.581 102.024 276.431 102.672 276.431 103.392C276.431 104.1 276.581 104.742 276.881 105.318C277.193 105.894 277.613 106.35 278.141 106.686C278.669 107.01 279.257 107.172 279.905 107.172C280.553 107.172 281.141 107.01 281.669 106.686C282.209 106.362 282.629 105.912 282.929 105.336C283.229 104.76 283.379 104.112 283.379 103.392ZM298.394 95.706C298.01 95.706 297.71 95.832 297.494 96.084C297.29 96.336 297.188 96.684 297.188 97.128V98.982H299.204C299.336 98.982 299.45 99.03 299.546 99.126C299.654 99.222 299.708 99.342 299.708 99.486C299.708 99.63 299.654 99.75 299.546 99.846C299.45 99.942 299.336 99.99 299.204 99.99H297.188V107.46C297.188 107.616 297.134 107.748 297.026 107.856C296.93 107.952 296.804 108 296.648 108C296.492 108 296.36 107.952 296.252 107.856C296.156 107.748 296.108 107.616 296.108 107.46V99.99H294.794C294.65 99.99 294.53 99.942 294.434 99.846C294.338 99.738 294.29 99.618 294.29 99.486C294.29 99.33 294.338 99.21 294.434 99.126C294.53 99.03 294.65 98.982 294.794 98.982H296.108V97.128C296.108 96.372 296.324 95.79 296.756 95.382C297.2 94.962 297.788 94.752 298.52 94.752C298.856 94.752 299.168 94.806 299.456 94.914C299.744 95.01 299.888 95.172 299.888 95.4C299.888 95.544 299.84 95.664 299.744 95.76C299.648 95.856 299.54 95.904 299.42 95.904C299.312 95.904 299.18 95.874 299.024 95.814C298.76 95.742 298.55 95.706 298.394 95.706ZM310.806 98.802C310.962 98.802 311.088 98.856 311.184 98.964C311.292 99.072 311.346 99.204 311.346 99.36V107.46C311.346 107.616 311.292 107.748 311.184 107.856C311.088 107.952 310.962 108 310.806 108C310.65 108 310.518 107.952 310.41 107.856C310.314 107.748 310.266 107.616 310.266 107.46V106.254C309.966 106.794 309.516 107.25 308.916 107.622C308.316 107.994 307.662 108.18 306.954 108.18C306.15 108.18 305.424 107.97 304.776 107.55C304.14 107.13 303.636 106.554 303.264 105.822C302.904 105.09 302.724 104.268 302.724 103.356C302.724 102.444 302.91 101.628 303.282 100.908C303.654 100.176 304.158 99.606 304.794 99.198C305.442 98.79 306.156 98.586 306.936 98.586C307.656 98.586 308.316 98.76 308.916 99.108C309.516 99.456 309.966 99.912 310.266 100.476V99.36C310.266 99.204 310.314 99.072 310.41 98.964C310.518 98.856 310.65 98.802 310.806 98.802ZM307.062 107.172C307.686 107.172 308.244 107.01 308.736 106.686C309.24 106.35 309.63 105.894 309.906 105.318C310.194 104.73 310.338 104.076 310.338 103.356C310.338 102.66 310.194 102.024 309.906 101.448C309.63 100.872 309.24 100.422 308.736 100.098C308.244 99.762 307.686 99.594 307.062 99.594C306.438 99.594 305.874 99.756 305.37 100.08C304.878 100.404 304.488 100.854 304.2 101.43C303.924 101.994 303.786 102.636 303.786 103.356C303.786 104.076 303.924 104.73 304.2 105.318C304.476 105.894 304.86 106.35 305.352 106.686C305.856 107.01 306.426 107.172 307.062 107.172ZM306.936 98.082C306.864 98.082 306.798 98.052 306.738 97.992C306.678 97.92 306.648 97.842 306.648 97.758C306.648 97.686 306.678 97.602 306.738 97.506L307.836 95.796C307.98 95.532 308.184 95.4 308.448 95.4C308.628 95.4 308.772 95.448 308.88 95.544C308.988 95.64 309.036 95.778 309.024 95.958C309.024 96.09 308.964 96.228 308.844 96.372L307.494 97.794C307.302 97.986 307.116 98.082 306.936 98.082ZM319.942 98.586C320.506 98.586 321.028 98.652 321.508 98.784C322 98.904 322.39 99.072 322.678 99.288C322.978 99.504 323.128 99.738 323.128 99.99C323.128 100.122 323.08 100.242 322.984 100.35C322.9 100.458 322.792 100.512 322.66 100.512C322.54 100.512 322.438 100.488 322.354 100.44C322.282 100.392 322.198 100.32 322.102 100.224C321.946 100.068 321.796 99.954 321.652 99.882C321.472 99.798 321.232 99.732 320.932 99.684C320.644 99.624 320.332 99.594 319.996 99.594C319.336 99.594 318.73 99.762 318.178 100.098C317.638 100.434 317.212 100.89 316.9 101.466C316.588 102.042 316.432 102.678 316.432 103.374C316.432 104.094 316.582 104.742 316.882 105.318C317.182 105.894 317.596 106.35 318.124 106.686C318.664 107.01 319.276 107.172 319.96 107.172C320.392 107.172 320.734 107.136 320.986 107.064C321.25 106.992 321.508 106.89 321.76 106.758C321.844 106.71 321.988 106.602 322.192 106.434C322.288 106.35 322.372 106.29 322.444 106.254C322.516 106.206 322.594 106.182 322.678 106.182C322.822 106.182 322.936 106.23 323.02 106.326C323.104 106.41 323.146 106.524 323.146 106.668C323.146 106.872 323.002 107.094 322.714 107.334C322.426 107.562 322.03 107.76 321.526 107.928C321.022 108.096 320.464 108.18 319.852 108.18C318.976 108.18 318.196 107.976 317.512 107.568C316.828 107.148 316.294 106.572 315.91 105.84C315.538 105.108 315.352 104.286 315.352 103.374C315.352 102.498 315.544 101.7 315.928 100.98C316.312 100.248 316.852 99.666 317.548 99.234C318.244 98.802 319.042 98.586 319.942 98.586ZM328.054 107.46C328.054 107.616 328 107.748 327.892 107.856C327.796 107.952 327.67 108 327.514 108C327.358 108 327.226 107.952 327.118 107.856C327.022 107.748 326.974 107.616 326.974 107.46V99.18C326.974 99.024 327.022 98.898 327.118 98.802C327.226 98.694 327.358 98.64 327.514 98.64C327.67 98.64 327.796 98.694 327.892 98.802C328 98.898 328.054 99.024 328.054 99.18V107.46ZM327.514 97.434C327.274 97.434 327.088 97.38 326.956 97.272C326.824 97.152 326.758 96.984 326.758 96.768V96.588C326.758 96.372 326.824 96.21 326.956 96.102C327.1 95.982 327.292 95.922 327.532 95.922C328.012 95.922 328.252 96.144 328.252 96.588V96.768C328.252 96.984 328.186 97.152 328.054 97.272C327.934 97.38 327.754 97.434 327.514 97.434ZM333.848 107.46C333.848 107.616 333.794 107.748 333.686 107.856C333.59 107.952 333.464 108 333.308 108C333.152 108 333.02 107.952 332.912 107.856C332.816 107.748 332.768 107.616 332.768 107.46V95.22C332.768 95.064 332.816 94.938 332.912 94.842C333.02 94.734 333.152 94.68 333.308 94.68C333.464 94.68 333.59 94.734 333.686 94.842C333.794 94.938 333.848 95.064 333.848 95.22V107.46Z" fill="#FE4400"/>
</g>
</svg>
