<svg viewBox="0 0 428 118" fill="none" xmlns="http://www.w3.org/2000/svg">
<path fill-rule="evenodd" clip-rule="evenodd" d="M412.726 6.68753C402.357 16.6845 401.01 20.7745 407.026 23.9935C409.643 25.3945 414.382 22.2805 422.355 13.9215C428.326 7.66153 429.289 4.48553 426.092 1.59253C422.764 -1.41947 420.069 -0.392475 412.726 6.68753ZM28.4214 1.83553C15.9694 5.02153 7.80243 17.5575 3.37143 40.2865C1.53643 49.7015 1.43744 50.6895 0.426438 69.5615C-0.301562 83.1495 -0.249574 83.7665 1.79543 85.8115C4.40143 88.4175 11.0164 88.7325 12.9984 86.3445C13.7254 85.4685 14.8294 82.2065 15.4524 79.0945L16.5844 73.4375L29.3904 73.3175C36.4334 73.2505 43.0024 73.4075 43.9874 73.6655C45.1844 73.9785 46.0064 75.5115 46.4664 78.2855C47.3304 83.5045 48.4004 85.5505 51.2394 87.4105C54.1004 89.2845 60.4724 87.5935 62.2104 84.4995C62.9794 83.1305 63.3474 76.2185 63.3054 63.9375C63.1884 29.8535 57.8234 12.6215 44.8864 4.77053C40.0524 1.83553 33.1954 0.613526 28.4214 1.83553ZM303.977 2.37053C303.323 3.15853 302.418 8.80852 301.965 14.9265C301.512 21.0445 300.913 26.2785 300.634 26.5585C300.354 26.8375 297.267 27.1845 293.773 27.3285C276.439 28.0425 263.921 41.6985 263.921 59.8925C263.921 71.3625 268.826 79.8075 278.301 84.6545C283.128 87.1225 284.286 87.2775 298.516 87.3555C309.937 87.4175 314.014 87.1035 315.266 86.0655C316.756 84.8295 316.921 80.6435 316.921 43.9735V3.25452L313.055 2.09553C307.926 0.559526 305.417 0.635526 303.977 2.37053ZM352.279 1.85453C338.65 5.26553 328.854 23.7355 325.982 51.4375C324.391 66.7765 324.201 84.6115 325.612 86.0265C326.267 86.6825 329.036 87.4345 331.764 87.6965C336.167 88.1195 336.863 87.9145 337.954 85.8765C338.63 84.6125 339.462 81.2975 339.803 78.5085L340.423 73.4375L353.115 73.3155C370.136 73.1515 370.921 73.3355 370.921 77.4885C370.921 82.5225 372.508 85.6725 375.935 87.4445C378.813 88.9335 379.298 88.9185 382.704 87.2425C387.669 84.8005 388.211 81.6975 387.558 59.4375C386.755 32.0965 383.578 19.2215 375.384 10.1075C372.948 7.39852 369.485 4.49053 367.688 3.64553C363.51 1.68253 356.311 0.845525 352.279 1.85453ZM37.3144 22.0325C42.5384 26.1415 45.9214 37.2405 45.9214 50.2695V55.9375L36.1714 56.0215C30.8084 56.0675 24.2324 56.3075 21.5564 56.5555L16.6914 57.0055L17.3364 50.7215C18.5254 39.1225 22.5824 28.1685 27.7184 22.6875C30.8014 19.3985 33.7134 19.1995 37.3144 22.0325ZM362.76 22.9305C366.707 26.8775 369.731 36.2865 370.555 47.1875L371.216 55.9375L361.319 56.0215C355.875 56.0675 349.274 56.3045 346.65 56.5485C343.198 56.8695 341.733 56.6105 341.349 55.6115C340.45 53.2675 344.537 35.6255 347.364 29.6505C351.992 19.8675 357.356 17.5265 362.76 22.9305ZM200.277 24.0285L197.133 24.9395L196.544 33.6885C196.219 38.5005 195.683 51.6625 195.352 62.9375C194.862 79.6335 195.009 83.7815 196.146 85.2895C197.849 87.5475 205.282 88.5515 209.171 87.0495L211.921 85.9875V71.6435C211.921 56.5985 213.221 49.4815 216.726 45.3345C222.492 38.5135 231.178 39.8645 235.637 48.2755C236.916 50.6885 237.225 53.3335 236.944 59.4375C236.741 63.8375 236.54 71.1905 236.498 75.7775C236.427 83.5035 236.604 84.2655 238.91 86.1315C240.876 87.7215 242.415 88.0485 246.219 87.6825C248.87 87.4285 251.575 86.6855 252.23 86.0315C253.889 84.3765 254.388 56.6375 252.916 47.9105C250.137 31.4345 238.065 23.7945 220.572 27.4435C211.616 29.3125 211.921 29.3315 211.921 26.9125C211.921 23.5075 206.613 22.1935 200.277 24.0285ZM109.788 26.0705C108.087 27.7715 106.318 28.2365 101.038 28.3695C84.5464 28.7835 71.9234 41.1815 71.9534 56.9375C71.9674 64.5175 74.0754 69.9375 78.8764 74.7385C84.7414 80.6035 87.2894 81.4395 99.2334 81.4175L110.045 81.3975L109.366 86.4175C107.839 97.7015 104.193 100.255 89.4524 100.364C79.8554 100.435 79.4354 100.532 78.2164 102.938C72.4184 114.388 87.1314 121.528 105.066 115.968C120.492 111.185 126.166 99.8445 126.346 73.4375C126.468 55.5195 124.912 26.6315 123.749 25.2305C123.115 24.4665 120.475 23.9375 117.299 23.9375C113.143 23.9375 111.436 24.4225 109.788 26.0705ZM151.421 28.3205C129.969 38.4625 129.969 73.7525 151.421 85.2585C156.971 88.2345 168.704 88.2185 174.421 85.2255C181.915 81.3035 185.564 75.2555 183.712 69.8255C182.919 67.4985 179.367 64.9375 176.935 64.9375C176.444 64.9375 173.963 66.7375 171.421 68.9375C166.516 73.1825 163.335 73.8765 158.951 71.6585C155.424 69.8735 151.921 64.2085 151.921 60.2895C151.921 56.3855 150.251 56.6935 170.165 56.9275L184.909 57.1005L185.988 54.2685C188.067 48.8165 185.094 37.8385 180.118 32.5955C173.369 25.4855 161.241 23.6785 151.421 28.3205ZM398.48 36.1875C397.531 40.6445 395.921 65.4425 395.921 75.6055C395.921 85.8295 395.96 86.0015 398.486 86.9625C401.768 88.2105 407.074 88.2105 410.356 86.9625L412.921 85.9875V60.5785V35.1705L410.671 34.5675C409.434 34.2365 406.292 33.9585 403.69 33.9515C399.587 33.9395 398.896 34.2365 398.48 36.1875ZM169.364 40.1605C170.22 41.3825 170.921 43.1825 170.921 44.1605C170.921 45.7155 169.921 45.9375 162.921 45.9375C153.987 45.9375 153.287 45.2525 157.608 40.7425C161.1 37.0965 167.014 36.8045 169.364 40.1605ZM299.487 44.0445C300.176 44.5835 300.407 49.0295 300.141 56.6565C299.691 69.5455 299.061 70.9375 293.68 70.9375C289.968 70.9375 285.631 68.6555 283.009 65.3225C279.162 60.4315 280.552 50.2955 285.711 45.6275C289.38 42.3075 296.249 41.5185 299.487 44.0445ZM107.356 44.9125C109.815 45.8475 109.921 46.2205 109.921 53.8925V61.8965L105.961 63.9175C95.4674 69.2705 86.6064 62.6085 89.8444 51.7995C91.8094 45.2415 99.8764 42.0685 107.356 44.9125Z" fill="#FE4400"/>
</svg>
