<svg width="30" height="30" viewBox="0 0 30 30" fill="none" xmlns="http://www.w3.org/2000/svg">
<path id="user-icon" fill-rule="evenodd" clip-rule="evenodd" d="M12.577 0.454367C10.061 1.3486 8.60395 2.60879 7.52184 4.82747C5.91773 8.11559 6.36116 11.4304 8.77289 14.1855C9.67527 15.2164 9.79498 15.5147 9.40517 15.7623C9.14079 15.93 8.73884 16.0697 8.51257 16.0727C7.70393 16.0829 4.29304 17.7746 2.9823 18.816C-0.573926 21.6408 -1.07469 28.0952 2.15715 29.4494C3.93425 30.1942 26.5476 30.1786 27.9879 29.4315C29.2443 28.7798 30 27.3204 30 25.5451C30 21.9969 28.4488 19.3626 25.3691 17.6816C23.8641 16.8601 23.6365 16.8195 23.0565 17.2707C22.4306 17.7574 22.436 17.7905 23.2558 18.4676C23.7194 18.8505 24.6262 19.5005 25.271 19.9118C27.1951 21.1395 27.9767 22.6162 27.9767 25.0229C27.9767 26.1904 27.799 27.2818 27.5721 27.5094C27.2723 27.8101 24.0003 27.9153 14.9385 27.9153C1.06863 27.9153 2.01147 28.124 2.01147 25.052C2.01147 22.0037 3.15732 20.4895 6.73378 18.8119C9.1907 17.6593 11.6938 17.0925 14.3271 17.0925C18.5325 17.0925 21.9639 14.6932 23.0619 10.985C23.7181 8.76868 23.7221 8.17951 23.0969 6.07751C22.4357 3.85477 20.9287 2.10248 18.781 1.05909C16.3241 -0.134463 14.6835 -0.294438 12.577 0.454367ZM18.5665 3.03731C20.9766 4.63706 22.1558 8.02901 21.2544 10.7689C20.7264 12.374 18.2526 14.6205 16.6893 14.9147C13.3927 15.535 10.6721 14.2383 9.15327 11.3232C7.33604 7.83589 9.4399 3.15433 13.2625 2.17791C14.8977 1.76055 17.2059 2.13428 18.5665 3.03731Z" fill="#717171"/>
</svg>
